<mxfile host="app.diagrams.net" modified="2023-08-30T15:16:20.793Z" agent="Mozilla/5.0 (Macintosh; Intel Mac OS X 10_15_7) AppleWebKit/537.36 (KHTML, like Gecko) Chrome/116.0.0.0 Safari/537.36" version="21.6.5" etag="Fc9cX6EaUZhjShS-6keG" type="github">
  <diagram name="第 1 页" id="b4gihwSZ7n82R8d03wDm">
    <mxGraphModel>
      <root>
        <mxCell id="0" />
        <mxCell id="1" parent="0" />
      </root>
    </mxGraphModel>
  </diagram>
</mxfile>
